<svg viewBox="0 0 41 41" fill="none" xmlns="http://www.w3.org/2000/svg">
<path d="M20.3333 25.5C22.9855 25.5 25.529 24.4464 27.4044 22.5711C29.2798 20.6957 30.3333 18.1522 30.3333 15.5C30.3333 12.8478 29.2798 10.3043 27.4044 8.42893C25.529 6.55357 22.9855 5.5 20.3333 5.5C17.6812 5.5 15.1376 6.55357 13.2623 8.42893C11.3869 10.3043 10.3333 12.8478 10.3333 15.5C10.3333 18.1522 11.3869 20.6957 13.2623 22.5711C15.1376 24.4464 17.6812 25.5 20.3333 25.5ZM20.3333 25.5V32.1667M20.3333 32.1667V35.5M20.3333 32.1667H17M20.3333 32.1667H23.6667" stroke="#63A3EE" stroke-width="3.2" stroke-linecap="round" stroke-linejoin="round"/>
</svg>
