<svg width="40" height="41" viewBox="0 0 40 41" fill="none" xmlns="http://www.w3.org/2000/svg">
<path d="M23.7185 16.7453C22.7877 15.819 21.6835 15.085 20.469 14.5854C19.2545 14.0858 17.9534 13.8302 16.6402 13.8334C15.3269 13.8366 14.0272 14.0984 12.8151 14.6039C11.603 15.1094 10.5024 15.8486 9.57602 16.7795C8.64965 17.7103 7.9157 18.8145 7.41607 20.029C6.91644 21.2435 6.66092 22.5446 6.66409 23.8578C6.66726 25.1711 6.92907 26.4708 7.43456 27.6829C7.94005 28.895 8.67933 29.9956 9.61018 30.922C11.4901 32.7929 14.0363 33.8403 16.6885 33.8339C19.3407 33.8275 21.8818 32.7678 23.7527 30.8878C25.6236 29.0079 26.671 26.4617 26.6646 23.8095C26.6582 21.1573 25.5985 18.6162 23.7185 16.7453ZM23.7185 16.7453L33.3318 7.16699M33.3318 7.16699H26.6652M33.3318 7.16699V13.8337" stroke="#EA6C56" stroke-width="3.2" stroke-linecap="round" stroke-linejoin="round"/>
</svg>
