<svg width="41" height="41" viewBox="0 0 41 41" fill="none" xmlns="http://www.w3.org/2000/svg">
<g clip-path="url(#clip0_366_1970)">
<path d="M20.6845 25.7866C21.9978 25.7834 23.2975 25.5216 24.5096 25.0161C25.7217 24.5106 26.8223 23.7713 27.7487 22.8405C28.6751 21.9096 29.409 20.8054 29.9086 19.5909C30.4083 18.3764 30.6638 17.0754 30.6606 15.7621C30.6574 14.4489 30.3956 13.1491 29.8901 11.937C29.3847 10.725 28.6454 9.62433 27.7145 8.69797C26.7837 7.7716 25.6795 7.03765 24.465 6.53802C23.2505 6.03839 21.9495 5.78287 20.6362 5.78604C17.984 5.79245 15.4429 6.85219 13.572 8.73213C11.7011 10.6121 10.6537 13.1582 10.6601 15.8105C10.6665 18.4627 11.7262 21.0038 13.6062 22.8746C15.4861 24.7455 18.0323 25.793 20.6845 25.7866ZM20.6845 25.7866L20.6845 38.5005M16.9983 30.0005L24.5065 36.5003M24.5097 30.0005L16.9984 36.5005" stroke="#B489FD" stroke-width="3.2" stroke-linecap="round" stroke-linejoin="round"/>
</g>
<defs>
<clipPath id="clip0_366_1970">
<rect width="40" height="40" fill="white" transform="translate(0.664062 0.5)"/>
</clipPath>
</defs>
</svg>
